<?xml version="1.0" standalone="no"?>
<!DOCTYPE svg PUBLIC "-//W3C//DTD SVG 20010904//EN"
 "http://www.w3.org/TR/2001/REC-SVG-20010904/DTD/svg10.dtd">
<svg version="1.0" xmlns="http://www.w3.org/2000/svg"
 width="1280.000000pt" height="768.000000pt" viewBox="0 0 1280.000000 768.000000"
 preserveAspectRatio="xMidYMid meet">
<metadata>
Created by potrace 1.15, written by Peter Selinger 2001-2017
</metadata>
<g transform="translate(0.000000,768.000000) scale(0.100000,-0.100000)"
fill="#000000" stroke="none">
<path d="M670 7674 c-145 -28 -217 -97 -281 -271 -30 -82 -59 -109 -121 -115
-83 -8 -93 -26 -93 -161 0 -126 -2 -131 -77 -214 -86 -96 -92 -117 -96 -351
-4 -224 8 -348 37 -396 11 -17 51 -55 90 -84 105 -81 148 -91 451 -108 493
-27 716 -34 1437 -44 l728 -9 63 -67 c74 -79 144 -183 238 -352 80 -145 130
-200 227 -246 40 -19 120 -57 178 -84 72 -34 117 -63 139 -88 29 -34 32 -41
24 -78 -16 -83 -10 -178 15 -241 71 -177 238 -384 401 -495 30 -20 101 -60
157 -89 124 -63 185 -125 264 -263 80 -142 119 -197 148 -212 14 -7 81 -16
151 -20 69 -4 142 -11 164 -17 60 -16 130 -89 176 -183 72 -146 91 -266 87
-541 -2 -206 -1 -211 65 -395 137 -378 310 -579 659 -764 172 -91 171 -91 644
-91 624 0 643 6 951 294 184 171 207 205 340 491 304 657 526 1002 665 1040
139 38 483 -50 645 -165 150 -107 372 -392 492 -631 61 -122 90 -212 102 -320
6 -55 22 -153 35 -219 43 -207 99 -636 140 -1060 19 -199 19 -283 0 -458 -8
-76 -17 -182 -21 -235 l-6 -97 98 -73 c215 -158 312 -183 914 -239 266 -24
831 -24 1030 0 505 62 785 205 854 436 27 92 17 244 -18 263 -9 5 -16 19 -16
32 0 12 -14 62 -31 112 -16 49 -45 154 -64 234 -18 80 -52 197 -75 260 -23 63
-64 187 -92 275 -114 368 -153 486 -200 600 -142 344 -157 390 -138 425 19 35
-8 107 -146 386 -99 202 -147 288 -181 327 -53 59 -209 254 -525 657 -119 151
-255 320 -302 375 -96 111 -133 173 -142 239 -8 58 -1 84 36 131 25 31 30 47
30 92 0 96 -22 106 -315 138 -77 9 -154 18 -171 20 -29 5 -39 18 -110 146
-147 265 -204 298 -614 349 -281 34 -283 35 -425 204 -112 135 -235 247 -421
386 -73 55 -158 125 -189 156 -49 48 -56 60 -50 83 16 63 113 179 177 212 35
18 99 30 240 44 113 12 231 95 202 142 -15 26 -84 57 -219 99 -103 32 -134 37
-220 38 -96 1 -105 -1 -228 -47 -142 -53 -243 -74 -301 -63 -38 7 -55 21 -130
105 -16 17 -42 35 -58 38 -15 3 -31 10 -34 15 -4 5 15 52 41 104 47 93 48 96
33 127 -19 39 -105 108 -172 138 -109 48 -212 61 -511 66 -154 2 -290 6 -302
8 -14 3 -25 15 -29 30 -9 36 -64 80 -126 101 -38 13 -82 19 -154 19 -118 0
-144 -13 -144 -71 0 -53 -28 -64 -187 -75 -76 -5 -502 -9 -948 -8 -575 1 -824
-2 -858 -10 -27 -6 -74 -24 -106 -40 -80 -41 -132 -49 -401 -63 -235 -12 -969
-3 -1820 22 -173 5 -477 14 -675 20 l-360 11 -155 159 c-193 197 -203 203
-365 206 -66 1 -131 0 -145 -2z m261 -112 c24 -16 62 -48 84 -73 33 -37 37
-44 21 -47 -36 -7 -166 100 -166 137 0 17 12 13 61 -17z m-191 -10 c0 -4 -20
-25 -45 -45 -25 -21 -45 -42 -45 -48 0 -5 20 -22 45 -37 24 -15 45 -30 45 -34
0 -18 -107 -7 -150 15 -37 18 -46 28 -48 53 -3 32 32 78 73 95 26 10 125 11
125 1z m6180 -108 c22 -5 28 -9 18 -15 -16 -11 -99 -12 -125 -2 -37 14 50 28
107 17z m198 -151 c99 -3 186 -9 192 -13 8 -5 1 -29 -24 -78 -43 -85 -44 -114
-11 -212 14 -41 24 -79 22 -85 -7 -20 -76 101 -98 170 -34 113 -39 123 -67
134 -15 5 -90 13 -167 16 -77 4 -173 13 -214 21 -40 7 -78 11 -82 8 -5 -3 -9
-24 -9 -47 0 -63 -22 -89 -73 -85 -34 2 -42 7 -42 23 0 13 12 25 32 35 60 28
46 34 -114 54 -184 23 -313 30 -358 17 -32 -8 -79 -48 -244 -211 -112 -110
-198 -200 -191 -200 21 0 128 82 250 190 63 56 137 113 164 127 96 49 196 19
381 -113 50 -35 114 -76 143 -90 l52 -25 56 25 c49 22 84 32 84 23 0 -1 -4
-17 -9 -35 -17 -59 9 -82 49 -42 40 40 25 108 -43 203 -10 15 -16 31 -12 37
11 18 58 -15 124 -89 34 -39 67 -69 72 -65 5 3 9 18 9 33 0 36 25 59 48 44 43
-26 15 -132 -49 -187 -57 -48 -122 -65 -304 -76 -149 -10 -371 -30 -904 -80
-231 -22 -417 -26 -441 -10 -21 15 25 55 143 124 197 116 317 213 449 364 l89
102 458 0 c252 0 539 -3 639 -7z m303 -108 c-49 -91 -54 -130 -27 -183 17 -34
21 -82 7 -82 -17 0 -50 50 -71 106 -35 95 -24 148 42 210 88 83 108 62 49 -51z
m189 87 c0 -11 -22 -45 -50 -76 -70 -80 -74 -89 -66 -169 7 -75 -1 -83 -37
-35 -27 36 -28 121 -2 173 43 87 155 164 155 107z m-2129 -14 c26 -9 63 -27
82 -42 32 -25 87 -93 87 -109 0 -17 -39 -4 -85 29 -73 53 -144 84 -192 84 -24
0 -43 -3 -43 -7 0 -4 36 -41 80 -83 80 -76 103 -117 83 -149 -6 -9 -20 -17
-31 -19 -16 -3 -25 5 -35 30 -29 70 -152 150 -264 173 -38 8 -158 17 -268 20
-211 7 -275 16 -275 40 0 43 114 54 505 51 243 -3 320 -6 356 -18z m-2916 -63
c1715 -29 2352 -50 2574 -86 65 -10 121 -33 121 -48 0 -5 -37 -12 -82 -16
-118 -9 -999 0 -1213 13 -191 11 -595 23 -1655 47 -360 8 -678 17 -705 20 -28
2 -305 9 -615 15 -641 12 -791 23 -756 57 24 24 796 24 2331 -2z m4155 -130
c0 -48 -25 -93 -54 -101 -35 -8 -66 12 -66 42 0 35 59 94 94 94 23 0 26 -4 26
-35z m-4390 -65 c360 -10 779 -26 1425 -55 182 -8 528 -19 770 -25 412 -10
680 -23 733 -37 33 -8 21 -27 -24 -36 -21 -5 -65 -15 -97 -22 -37 -8 -70 -10
-90 -5 -38 10 -465 26 -1102 40 -753 17 -1515 39 -2100 62 -304 11 -777 22
-1058 23 -279 2 -511 5 -514 8 -11 12 9 26 49 32 23 4 94 11 157 15 180 11
1444 11 1851 0z m-375 -135 c1981 -40 2667 -63 2781 -94 l29 -8 -25 -13 c-27
-15 -166 -16 -485 -5 -322 11 -2047 48 -3025 65 -959 17 -1240 39 -869 69 157
13 319 12 1594 -14z m5225 -36 c81 -13 130 -35 130 -59 0 -21 -12 -26 -88 -35
-66 -9 -302 4 -302 16 0 5 6 9 14 9 8 0 26 15 41 33 15 17 35 35 44 39 24 10
88 9 161 -3z m467 -51 c16 -17 15 -18 -20 -33 -69 -29 -227 -14 -227 21 0 25
41 34 137 31 72 -1 96 -6 110 -19z m1308 -6 c84 -26 145 -60 145 -78 0 -22
-52 -14 -178 26 -120 39 -164 38 -287 -6 -261 -93 -334 -115 -397 -121 -59 -5
-73 -3 -122 21 -51 25 -166 133 -166 157 0 19 31 7 97 -37 37 -26 82 -53 100
-60 71 -30 190 -11 335 56 119 53 201 71 313 66 58 -3 125 -13 160 -24z
m-6720 -37 c369 -8 1068 -21 1555 -30 487 -9 908 -21 937 -26 75 -15 98 -36
96 -92 -2 -58 -57 -189 -97 -232 -24 -25 -43 -35 -80 -40 -55 -9 -261 -1 -381
14 -97 12 -592 26 -1600 46 -1135 22 -2554 62 -2564 71 -11 10 20 229 36 263
17 35 21 36 83 43 93 9 1228 0 2015 -17z m5585 -118 c121 -411 226 -574 506
-788 131 -101 185 -133 301 -180 206 -85 468 -146 861 -203 259 -38 339 -53
347 -66 8 -13 -52 -58 -93 -70 -20 -5 -51 -10 -68 -10 -128 0 -902 192 -1089
271 -38 16 -81 29 -94 29 -24 0 -24 0 -5 -22 42 -47 179 -93 669 -227 121 -33
297 -79 390 -102 94 -23 176 -47 184 -53 17 -13 92 -124 193 -286 l78 -124
-91 -92 c-51 -51 -107 -100 -125 -110 l-32 -17 -95 57 c-122 74 -218 107 -328
114 -96 5 -173 -12 -243 -54 -22 -14 -99 -86 -171 -160 l-130 -135 -360 21
c-576 33 -891 61 -961 86 -29 11 -54 35 -54 54 0 9 16 24 36 33 23 11 40 29
50 52 19 46 18 68 -5 96 -17 21 -28 24 -93 24 -40 0 -83 6 -94 12 -51 29 -114
124 -114 173 0 11 23 82 51 157 28 76 68 207 89 290 22 84 51 176 67 204 29
54 83 99 119 99 42 0 384 -181 384 -202 0 -12 -33 -2 -210 59 -169 58 -232 66
-250 34 -5 -11 -10 -22 -10 -25 0 -11 124 -68 264 -122 156 -61 217 -93 241
-126 20 -29 20 -29 -15 -73 -60 -76 -47 -158 40 -239 57 -53 82 -57 156 -25
120 51 188 16 215 -109 14 -66 47 -102 93 -102 91 0 130 170 57 252 -25 28
-34 31 -127 41 -93 9 -124 19 -124 37 0 15 81 40 131 40 77 0 114 20 141 77
28 59 66 71 94 29 14 -22 15 -33 5 -70 -6 -25 -11 -47 -11 -50 0 -15 41 -3 82
23 76 49 74 90 -10 137 -116 66 -152 89 -157 102 -3 8 4 29 15 47 38 62 44 56
-182 176 -84 45 -185 103 -224 130 -234 162 -360 371 -423 701 -31 163 -35
201 -19 196 24 -8 49 -76 58 -160 14 -138 66 -264 178 -432 61 -91 211 -248
285 -298 66 -45 204 -111 220 -105 6 2 -41 42 -104 89 -308 231 -484 510 -518
826 -18 165 -23 217 -17 211 3 -3 24 -67 46 -142z m-550 58 c18 -22 8 -50 -21
-53 -29 -3 -64 29 -56 53 8 19 61 20 77 0z m-249 -48 c150 -101 251 -462 252
-902 0 -303 -31 -484 -129 -733 -84 -216 -177 -384 -204 -367 -13 8 8 62 51
130 147 234 188 432 196 947 7 460 -3 535 -102 728 -47 91 -85 133 -114 128
-24 -4 -52 -70 -64 -148 -12 -79 -4 -97 45 -102 44 -4 67 -41 83 -134 22 -125
19 -260 -11 -399 -26 -123 -43 -165 -69 -165 -8 0 -18 12 -22 28 -10 36 -10
193 0 365 5 80 4 137 -1 137 -63 0 -83 -985 -24 -1163 l17 -52 48 -3 c57 -4
61 -20 18 -78 -41 -56 -78 -87 -95 -81 -28 11 -56 161 -78 407 -17 195 -17
875 0 1040 23 227 57 386 90 423 21 24 72 21 113 -6z m-1201 -26 c37 -10 30
-34 -14 -49 -94 -30 -505 -60 -668 -47 -107 8 -123 14 -114 43 8 23 44 40 112
51 60 10 649 12 684 2z m2830 0 c0 -33 -156 -161 -197 -161 -22 0 -14 35 15
62 74 70 182 129 182 99z m-1179 -24 c37 -25 44 -54 17 -70 -36 -23 -100 36
-85 77 9 22 28 20 68 -7z m-1028 -88 c52 -17 87 -52 87 -85 0 -20 -13 -40 -50
-74 -28 -26 -47 -49 -43 -53 3 -4 21 -7 38 -7 45 0 56 -18 66 -112 10 -85 32
-129 53 -108 7 7 13 87 17 203 6 196 17 263 42 238 9 -9 12 -162 13 -639 0
-577 2 -643 22 -822 12 -107 22 -213 22 -235 -1 -37 -2 -38 -15 -21 -22 29
-65 228 -75 341 -4 57 -11 109 -15 115 -6 9 -41 10 -135 5 l-127 -7 -25 27
c-15 16 -33 25 -44 23 -16 -3 -18 -11 -16 -51 3 -36 0 -48 -12 -53 -28 -11
-17 -23 51 -57 36 -19 61 -37 56 -40 -6 -4 -49 -10 -97 -13 -95 -8 -116 0
-116 44 0 13 10 40 21 59 20 32 20 36 5 51 -13 14 -54 17 -263 23 -252 7 -975
-5 -1026 -17 -15 -3 -34 -16 -42 -27 -22 -32 -30 -12 -28 66 3 61 30 279 36
283 1 0 164 6 362 12 198 6 370 14 383 18 30 9 28 19 -7 34 -16 6 -37 20 -47
31 -16 18 -16 19 4 19 37 0 71 -19 120 -64 26 -25 60 -50 75 -55 23 -9 29 -7
42 13 14 21 14 28 1 65 -21 62 -64 119 -110 146 -70 40 -212 60 -686 96 -85 6
-158 14 -162 18 -9 8 -13 309 -4 318 4 4 282 8 619 8 554 1 616 3 649 18 27
12 64 17 131 17 116 0 130 8 131 78 2 103 -69 143 -141 79 -62 -56 -95 -67
-216 -77 -146 -13 -771 -12 -960 0 -298 19 -202 55 173 65 278 8 388 20 480
55 100 37 156 50 281 60 140 11 434 5 482 -11z m989 -48 c85 -58 157 -125 196
-183 21 -33 27 -53 27 -99 0 -32 -4 -61 -9 -66 -11 -11 -87 74 -197 219 -145
193 -148 217 -17 129z m1051 -184 c40 -41 121 -107 180 -147 120 -81 279 -232
390 -370 90 -113 123 -168 107 -183 -14 -14 -75 48 -201 205 -124 155 -233
258 -344 324 -107 63 -179 123 -200 165 -15 27 -21 79 -9 79 3 0 38 -33 77
-73z m-7593 -87 c190 -5 892 -23 1560 -40 1601 -40 2108 -57 2093 -70 -12 -11
-629 -18 -823 -10 -91 4 -273 13 -405 19 -132 6 -602 20 -1045 31 -1088 27
-1587 46 -1825 69 l-80 8 90 2 c50 0 245 -4 435 -9z m-335 -80 c324 -18 1090
-41 2040 -60 1162 -23 1820 -46 1904 -67 23 -6 24 -7 5 -14 -39 -14 -536 -21
-724 -10 -333 20 -596 30 -1170 46 -978 26 -1232 34 -1715 55 -418 19 -595 37
-595 62 0 6 16 8 43 4 23 -3 119 -10 212 -16z m3295 -190 c434 -12 664 -25
717 -43 25 -8 42 -22 52 -41 36 -76 -43 -82 -817 -67 -625 13 -744 20 -812 54
-44 22 -95 81 -84 98 7 12 480 11 944 -1z m1193 -241 c26 -6 47 -15 47 -20 0
-16 -184 -11 -206 5 -18 14 -18 15 6 25 26 11 71 8 153 -10z m-350 -30 c15
-21 19 -42 19 -92 0 -66 -13 -110 -26 -89 -20 32 -56 147 -56 178 0 31 3 35
21 32 12 -2 31 -15 42 -29z m-1123 -33 c118 -22 182 -42 215 -67 24 -19 27
-27 22 -61 -3 -22 -21 -63 -40 -92 -46 -69 -79 -134 -87 -171 -8 -42 -37 -43
-96 -2 -27 18 -70 48 -96 66 -26 18 -82 46 -123 63 -45 18 -91 46 -115 69 -71
69 -142 193 -122 214 12 12 353 -3 442 -19z m767 -118 c104 -39 258 -186 376
-359 49 -74 54 -88 37 -120 -19 -34 -48 -23 -71 25 -24 53 -233 260 -323 321
-53 37 -65 40 -135 43 -119 6 -206 -36 -379 -183 -64 -55 -82 -57 -82 -12 0
38 35 92 102 157 150 145 312 189 475 128z m5660 -139 c53 -26 107 -94 214
-271 77 -128 93 -168 65 -168 -22 0 -70 61 -117 151 -47 88 -124 181 -170 204
-47 25 -129 14 -129 -16 0 -5 25 -34 55 -64 71 -71 74 -115 6 -115 -35 0 -141
140 -141 187 0 35 105 106 164 112 5 1 29 -8 53 -20z m-5711 -87 c47 -24 121
-104 130 -139 10 -39 -2 -53 -45 -53 -30 0 -49 8 -81 35 -36 30 -49 35 -94 35
-121 0 -226 -75 -226 -162 0 -61 87 -169 177 -220 l42 -24 -45 -12 c-56 -15
-117 -56 -168 -112 -25 -28 -35 -45 -28 -52 14 -14 133 -25 462 -43 321 -17
447 -30 505 -52 79 -29 136 -33 635 -42 278 -5 513 -12 523 -16 32 -13 18 -46
-50 -114 -91 -91 -168 -139 -276 -176 -50 -16 -92 -36 -95 -43 -9 -28 69 -44
264 -52 245 -11 311 -27 270 -68 -13 -13 -54 -17 -236 -23 -330 -10 -306 -20
98 -44 394 -23 465 -18 506 38 20 27 21 39 18 225 -1 111 1 203 7 211 5 8 35
18 67 22 31 4 64 14 72 22 13 13 12 16 -6 26 -29 15 -183 30 -327 32 -66 1
-154 4 -195 8 l-75 6 40 18 c66 30 68 56 4 81 -21 9 -39 19 -39 22 0 11 310
-4 360 -16 77 -20 77 -20 60 -30 -8 -4 -64 -14 -125 -21 l-110 -14 60 -6 c128
-14 355 -7 355 11 0 4 -11 13 -25 20 -27 15 -33 30 -11 30 22 0 39 28 46 73
l5 42 37 -60 c20 -33 57 -80 82 -105 52 -50 56 -60 22 -60 -47 0 -74 -17 -87
-57 -15 -43 -20 -472 -6 -534 7 -34 10 -37 55 -42 26 -4 342 -13 702 -21 631
-15 763 -19 915 -32 156 -14 6 -25 -455 -34 -542 -11 -684 -21 -716 -51 -16
-15 -35 -19 -85 -19 -82 0 -349 32 -343 41 2 4 36 10 76 14 102 10 68 21 -107
34 -228 16 -311 20 -834 41 -267 11 -584 24 -705 30 -122 6 -305 14 -409 18
-218 10 -212 7 -294 122 -96 135 -154 182 -383 304 -234 125 -307 196 -355
348 -47 148 -56 270 -29 387 28 128 112 227 223 265 65 23 192 17 247 -12z
m3776 -34 c43 -13 98 -68 98 -98 0 -38 -47 -24 -106 31 -75 72 -73 92 8 67z
m-18 -124 c47 -46 48 -87 2 -92 -41 -5 -74 16 -86 54 -13 39 1 74 29 74 10 0
35 -16 55 -36z m-3198 1 c9 -13 20 -57 25 -96 9 -75 26 -111 57 -128 45 -24
207 -36 512 -36 332 0 360 3 360 45 0 46 99 74 313 91 175 13 393 7 434 -13
15 -7 28 -20 28 -28 0 -29 -65 -39 -255 -40 -102 -1 -234 -5 -293 -9 -124 -10
-150 -23 -140 -72 8 -41 -11 -59 -63 -59 -23 0 -45 -4 -48 -9 -3 -4 18 -21 46
-36 59 -32 128 -91 128 -110 0 -7 -7 -18 -15 -25 -12 -10 -33 -3 -112 34 -150
70 -238 85 -628 106 -106 6 -213 17 -243 26 -50 14 -55 18 -78 69 -27 59 -74
233 -74 275 0 46 21 53 46 15z m-570 -25 c53 -33 89 -130 68 -184 -10 -25 -29
-19 -62 18 -37 43 -96 161 -87 175 10 17 45 13 81 -9z m-138 -65 c45 -52 117
-188 108 -204 -11 -18 -51 -13 -86 12 -76 51 -124 151 -101 210 15 38 33 34
79 -18z m1312 34 c27 -6 50 -15 50 -20 0 -25 -62 -33 -240 -33 -120 0 -195 4
-212 12 -73 31 2 49 204 51 81 1 170 -4 198 -10z m4560 -101 c11 -18 20 -42
20 -53 0 -21 -17 -45 -32 -45 -14 0 -38 59 -38 95 0 45 23 47 50 3z m643 -39
c40 -7 75 -15 80 -18 4 -4 -35 -13 -85 -20 -156 -22 -324 -84 -586 -215 -131
-66 -198 -91 -207 -76 -15 25 233 202 377 270 145 68 262 84 421 59z m-6038
-59 c55 -6 115 -13 132 -16 35 -5 57 -32 43 -53 -6 -11 -35 -11 -163 2 -155
16 -237 38 -237 62 0 28 31 28 225 5z m-186 -103 c60 -30 22 -59 -79 -59 -37
0 -78 5 -90 12 -46 25 6 60 90 60 30 0 66 -6 79 -13z m5051 -103 c135 -51 270
-168 270 -236 0 -29 1 -30 37 -23 20 3 77 24 127 46 215 95 318 130 333 116
22 -22 -74 -87 -128 -87 -38 0 -155 -82 -277 -195 -57 -52 -112 -95 -122 -95
-13 0 -19 11 -22 45 -11 94 -126 260 -221 319 -86 53 -261 45 -386 -18 -56
-29 -107 -84 -92 -99 14 -14 92 -26 172 -26 84 -1 107 -18 155 -115 72 -143
113 -153 114 -28 0 63 24 114 52 110 27 -4 65 -57 74 -103 9 -48 -13 -111 -52
-155 -42 -46 -80 -56 -156 -41 -29 6 -70 13 -90 16 -45 7 -46 14 -13 63 32 48
32 77 -3 112 -97 97 -362 43 -362 -75 0 -82 109 -220 230 -292 67 -40 137 -56
220 -51 123 7 199 53 307 183 23 28 44 47 48 43 9 -8 -29 -93 -60 -134 -100
-131 -403 -199 -510 -114 -21 16 -54 32 -74 35 -20 3 -47 11 -61 18 -64 32
-130 199 -130 329 0 173 116 350 283 433 123 61 211 66 337 19z m1265 -144
c152 -73 287 -223 577 -636 376 -534 611 -954 791 -1410 102 -258 327 -906
327 -940 0 -2 -4 -4 -9 -4 -12 0 -75 147 -161 374 -243 644 -369 906 -435 906
-37 0 -55 10 -55 32 0 16 6 19 33 16 28 -3 32 0 35 25 3 24 0 27 -25 27 -15 0
-43 -9 -62 -21 -33 -20 -34 -21 -29 -82 4 -45 34 -140 108 -342 263 -721 419
-1247 505 -1710 19 -104 37 -200 40 -212 5 -22 10 -23 108 -24 115 -1 152 -8
152 -29 0 -19 -40 -38 -106 -50 -67 -13 -119 -48 -149 -103 -48 -86 -100 -156
-133 -176 -76 -47 -89 -10 -30 85 100 162 112 204 93 352 -77 634 -448 1740
-854 2552 -234 467 -439 779 -736 1120 -167 191 -212 264 -182 294 18 19 110
-2 197 -44z m-5581 24 c32 -12 15 -24 -34 -24 -27 0 -50 4 -50 9 0 18 53 27
84 15z m5420 -176 c187 -187 329 -364 351 -435 19 -64 -59 4 -157 138 -31 41
-105 128 -164 193 -120 129 -194 217 -194 229 0 27 49 -10 164 -125z m-2845
10 c144 -27 122 -48 -51 -48 -161 0 -261 20 -234 48 22 21 174 22 285 0z
m2616 6 c20 -21 15 -36 -17 -52 -34 -16 -78 -1 -78 27 0 38 65 55 95 25z
m-4013 -227 c-3 -43 -1 -48 23 -57 15 -6 43 -10 63 -10 46 -1 32 -10 -60 -40
-39 -12 -85 -20 -110 -18 -39 3 -43 6 -46 30 -4 36 34 103 73 128 47 31 61 23
57 -33z m1455 -43 c9 -23 -29 -67 -71 -83 -33 -13 -39 -12 -54 2 -15 16 -15
19 4 44 36 49 108 71 121 37z m2298 -110 c20 -21 15 -36 -17 -52 -34 -16 -78
-1 -78 27 0 38 65 55 95 25z m279 -107 c15 -11 17 -17 7 -35 -16 -31 -60 -40
-78 -16 -17 23 -13 36 18 51 30 16 31 16 53 0z m635 -63 c27 -34 27 -64 1 -64
-22 0 -55 53 -46 76 8 21 22 17 45 -12z m-478 6 c38 -21 17 -50 -37 -50 -29 0
-41 24 -24 45 15 18 34 19 61 5z m-387 -31 c32 -25 33 -36 1 -51 -19 -9 -29
-8 -50 6 -27 18 -32 35 -13 54 17 17 32 15 62 -9z m520 -15 c9 -8 16 -29 16
-45 0 -27 -3 -30 -27 -27 -19 2 -30 11 -37 29 -17 50 14 78 48 43z m-359 -50
c9 -9 15 -26 13 -38 -2 -17 -10 -21 -43 -21 -33 0 -41 4 -43 21 -3 23 21 54
43 54 7 0 21 -7 30 -16z m-3710 -4 c17 -4 -56 -8 -165 -8 -109 0 -182 4 -165
8 17 4 91 8 165 8 74 0 149 -4 165 -8z m-941 -51 c184 -12 246 -20 246 -30 0
-5 -33 -18 -72 -30 -40 -12 -89 -30 -109 -40 -77 -39 -164 -166 -234 -344
-105 -266 -82 -599 56 -837 56 -96 103 -146 263 -286 198 -172 294 -216 532
-243 202 -23 433 9 584 82 309 148 506 377 586 684 23 85 27 127 31 288 6 216
-3 284 -49 367 -69 123 -77 145 -78 198 0 77 20 117 66 132 60 20 618 -1 641
-24 10 -9 -26 -92 -84 -194 -117 -206 -202 -394 -233 -518 -33 -126 -202 -463
-331 -654 -124 -185 -367 -363 -568 -415 -99 -25 -284 -37 -519 -33 -218 4
-230 5 -291 30 -201 84 -498 326 -616 503 -22 33 -63 106 -92 162 -76 152
-107 294 -133 618 -22 278 -44 375 -112 502 -48 90 -49 92 -26 97 30 6 367 -3
542 -15z m4421 1 c25 -28 13 -52 -26 -48 -35 3 -56 26 -46 52 9 22 50 20 72
-4z m393 8 c13 -17 -1 -52 -29 -72 -24 -17 -34 -14 -49 13 -20 39 51 92 78 59z
m-3378 -58 c231 -15 270 -21 284 -42 14 -23 1 -45 -44 -76 -36 -24 -36 -24
-148 -41 -115 -18 -210 -75 -296 -180 -34 -42 -45 -64 -50 -105 -21 -156 -120
-481 -186 -610 -77 -150 -171 -260 -260 -306 -23 -12 -82 -28 -132 -36 -89
-14 -148 -36 -148 -54 0 -5 10 -16 23 -24 82 -51 262 -7 429 105 97 65 227
202 270 284 20 39 69 171 108 295 81 250 120 337 177 392 46 44 180 128 205
128 42 0 112 -148 137 -294 32 -177 -9 -437 -95 -609 -54 -107 -105 -177 -196
-262 -173 -163 -426 -267 -653 -269 -88 -1 -117 4 -235 38 -74 21 -159 49
-188 62 -146 64 -330 236 -415 385 -66 117 -82 195 -82 389 1 174 19 291 61
377 46 96 207 219 360 275 82 30 183 30 246 -1 59 -28 200 -176 269 -280 l49
-75 0 -92 c0 -172 -71 -374 -180 -514 -28 -36 -71 -91 -95 -124 -75 -97 -55
-114 46 -39 142 107 259 333 290 559 8 64 7 93 -5 153 -40 191 -191 398 -366
502 -52 31 -76 51 -78 66 -2 17 3 24 20 27 13 3 32 7 43 10 33 8 647 -2 835
-14z m3498 -23 c4 -44 -20 -61 -43 -31 -18 24 -19 46 -3 62 23 23 43 9 46 -31z
m-338 4 c18 -34 -10 -68 -44 -55 -35 13 -23 74 14 74 11 0 24 -9 30 -19z m485
-32 c4 -5 4 -21 1 -35 -5 -17 -13 -24 -31 -24 -29 0 -32 16 -9 48 17 24 29 28
39 11z m-715 -44 c18 -22 8 -50 -21 -53 -29 -3 -64 29 -56 53 8 19 61 20 77 0z
m379 -4 c13 -24 -8 -55 -34 -50 -28 6 -42 34 -26 53 18 22 48 20 60 -3z m-235
-27 c17 -16 19 -35 10 -71 -12 -45 -53 -12 -54 43 0 46 16 56 44 28z m684 -26
c-4 -26 -30 -43 -52 -35 -21 8 -21 53 1 66 25 13 55 -5 51 -31z m-202 -49 c8
-13 -14 -56 -32 -63 -19 -7 -30 40 -14 59 15 18 36 19 46 4z m-292 -45 c9 -8
16 -19 16 -24 0 -18 -30 -38 -49 -33 -28 7 -54 40 -48 58 8 20 61 20 81 -1z
m444 -16 c20 -20 14 -35 -15 -40 -42 -6 -63 1 -63 21 0 10 3 21 7 24 11 11 58
8 71 -5z m-659 -27 c13 -24 -8 -55 -34 -50 -28 6 -42 34 -26 53 18 22 48 20
60 -3z m329 7 c15 -15 16 -45 1 -53 -14 -9 -49 24 -49 47 0 21 29 25 48 6z
m455 -47 c6 -25 -10 -51 -33 -51 -28 0 -34 18 -16 45 19 30 42 32 49 6z m-59
-122 c29 -23 26 -39 -8 -39 -29 0 -49 22 -40 44 8 21 16 20 48 -5z m-627 -25
c3 -9 -3 -25 -16 -37 l-21 -21 -21 21 c-29 28 -19 53 21 53 19 0 33 -6 37 -16z
m453 -39 c18 -21 8 -50 -18 -53 -28 -4 -62 23 -62 50 0 14 8 18 34 18 18 0 39
-7 46 -15z m-336 -31 c18 -18 20 -32 6 -54 -7 -12 -12 -12 -29 4 -21 19 -27
46 -14 59 10 11 20 8 37 -9z m446 1 c26 -31 -13 -82 -44 -56 -21 18 -20 48 2
60 23 14 28 13 42 -4z m-580 -115 c19 -16 43 -30 53 -30 24 0 33 -28 14 -47
-14 -14 -19 -14 -49 4 -18 11 -46 23 -61 27 -34 8 -67 59 -67 104 l0 34 38
-31 c20 -17 53 -44 72 -61z m248 78 c18 -18 14 -46 -9 -58 -26 -14 -49 3 -49
35 0 32 35 46 58 23z m154 -53 c17 -37 0 -80 -31 -80 -34 0 -49 46 -27 80 21
32 43 32 58 0z m312 19 c29 -11 16 -24 -24 -24 -54 0 -53 19 2 29 3 0 13 -2
22 -5z m141 -59 c31 -30 31 -40 3 -59 -38 -27 -89 24 -66 67 12 24 35 21 63
-8z m475 -120 c179 -371 514 -1376 624 -1867 14 -62 37 -199 51 -305 24 -181
25 -195 11 -263 -23 -109 -88 -199 -127 -175 -7 5 -8 33 -3 86 4 53 3 79 -4
79 -6 0 -59 -17 -119 -37 -101 -35 -116 -37 -228 -38 -120 0 -122 0 -198 38
-63 31 -89 52 -154 125 -131 145 -183 190 -269 233 -71 36 -90 41 -152 41
-113 1 -174 -39 -272 -177 -33 -47 -35 -49 -38 -24 -5 41 37 139 80 185 44 47
112 80 199 96 159 28 335 -66 465 -248 58 -81 143 -160 201 -187 41 -19 65
-22 173 -22 146 0 199 15 266 77 89 82 110 194 74 403 -41 241 -174 734 -265
980 -81 219 -115 323 -124 380 -6 38 -26 91 -55 145 -79 150 -243 580 -229
602 11 19 47 -30 93 -127z m-790 87 c0 -11 -9 -27 -21 -38 -17 -16 -22 -16
-29 -4 -13 20 -12 34 2 48 19 19 48 15 48 -6z m-320 -51 c0 -28 -28 -47 -48
-34 -24 15 -27 44 -7 59 22 17 55 1 55 -25z m448 6 c5 -23 -15 -47 -39 -47
-21 0 -24 21 -8 51 12 24 42 21 47 -4z m-354 -53 c22 -8 20 -51 -2 -63 -37
-20 -70 27 -40 57 14 14 20 14 42 6z m497 -16 c10 -18 8 -24 -10 -39 -25 -21
-48 -16 -56 12 -14 44 44 67 66 27z m148 -76 c20 -38 -31 -71 -59 -37 -6 8 -9
23 -5 35 8 25 51 27 64 2z m-675 -31 c33 -36 -18 -83 -52 -49 -16 16 -15 33 4
52 20 21 27 20 48 -3z m305 5 c15 -18 5 -41 -25 -55 -45 -20 -61 12 -24 49 24
24 34 25 49 6z m139 -38 c17 -17 15 -43 -4 -59 -31 -26 -70 25 -44 56 15 18
32 19 48 3z m-628 -83 c20 -25 8 -50 -25 -50 -31 0 -43 20 -31 51 7 18 40 18
56 -1z m780 0 c20 -25 8 -50 -25 -50 -31 0 -43 20 -31 51 7 18 40 18 56 -1z
m-353 -17 c25 -23 31 -68 10 -68 -19 0 -44 30 -52 63 -9 34 9 36 42 5z m-278
-22 c14 -17 5 -41 -27 -70 -22 -19 -36 -16 -52 13 -7 14 -4 25 11 45 23 29 50
34 68 12z m820 -42 c13 -12 12 -16 -4 -34 -32 -36 -95 -21 -95 22 0 36 66 44
99 12z m-385 -13 c20 -22 14 -41 -13 -41 -22 0 -41 19 -41 42 0 24 32 23 54
-1z m-326 -13 c17 -17 15 -43 -4 -59 -31 -26 -70 25 -44 56 15 18 32 19 48 3z
m474 -25 c21 -19 24 -56 4 -72 -32 -27 -89 31 -72 74 7 20 45 19 68 -2z m-320
-28 c26 -58 -28 -109 -73 -69 -24 22 -24 35 2 68 26 33 56 34 71 1z m-338 -31
c10 -26 7 -59 -8 -79 -13 -18 -14 -17 -30 13 -17 32 -21 64 -9 75 12 13 41 7
47 -9z m489 -46 c8 -12 7 -21 -2 -32 -19 -22 -48 -20 -61 5 -23 41 38 68 63
27z m332 -13 c0 -27 -3 -30 -30 -30 -21 0 -31 5 -33 18 -6 33 6 49 35 45 24
-3 28 -8 28 -33z m-675 -20 c0 -21 -36 -59 -48 -51 -18 11 -14 54 5 64 20 12
43 5 43 -13z m458 -9 c5 -22 -16 -46 -39 -46 -24 0 -25 27 -2 52 19 21 37 19
41 -6z m-331 -30 c24 -20 25 -26 14 -40 -17 -21 -49 -20 -73 1 -21 19 -23 34
-6 51 18 18 34 15 65 -12z m724 5 c20 -16 22 -23 13 -38 -17 -27 -38 -27 -70
0 -24 21 -26 27 -15 41 18 21 44 20 72 -3z m-215 -50 c18 -35 3 -75 -28 -79
-52 -6 -76 50 -37 89 25 25 50 21 65 -10z m-371 -46 c0 -27 -3 -30 -30 -30
-21 0 -31 5 -33 18 -5 25 17 49 42 45 16 -2 21 -10 21 -33z m-835 -32 c49
-129 93 -410 76 -479 -7 -27 -8 -28 -21 -10 -42 57 -119 546 -86 546 5 0 19
-26 31 -57z m985 -8 c0 -27 -3 -30 -30 -30 -21 0 -31 5 -33 18 -6 33 6 49 35
45 24 -3 28 -8 28 -33z m371 11 c9 -36 1 -68 -19 -80 -15 -9 -21 -7 -33 8 -17
24 -18 68 -2 84 20 20 47 14 54 -12z m-701 -36 c14 -44 -44 -69 -65 -29 -9 15
-8 24 1 35 18 21 57 18 64 -6z m135 -26 c18 -21 17 -72 -2 -90 -12 -12 -19
-13 -42 -3 -37 17 -44 54 -15 85 26 28 41 30 59 8z m338 4 c17 -17 15 -43 -4
-59 -31 -26 -70 25 -44 56 15 18 32 19 48 3z m370 -40 c30 -30 0 -78 -37 -58
-32 17 -21 70 14 70 6 0 16 -5 23 -12z m-549 -45 c13 -25 -5 -53 -34 -53 -15
0 -26 7 -30 20 -13 41 43 70 64 33z m342 -1 c41 -34 1 -67 -55 -46 -16 6 -22
45 -9 57 12 13 40 7 64 -11z m-716 -57 c0 -25 -4 -31 -26 -33 -29 -3 -44 18
-33 50 4 14 13 18 32 16 23 -2 27 -8 27 -33z m525 -41 c0 -28 -25 -42 -49 -27
-23 15 -26 45 -6 59 25 18 55 0 55 -32z m-361 10 c34 -28 39 -55 16 -74 -33
-27 -104 36 -90 80 9 27 37 25 74 -6z m712 -14 c25 -14 25 -57 0 -65 -39 -12
-91 46 -60 66 19 12 36 11 60 -1z m-213 -42 c17 -17 15 -43 -4 -59 -31 -26
-70 25 -44 56 15 18 32 19 48 3z m-360 -47 c5 -45 -11 -60 -38 -36 -23 21 -26
45 -8 63 22 22 43 9 46 -27z m169 -36 c8 -24 -27 -56 -56 -53 -29 3 -42 45
-19 59 22 14 68 10 75 -6z m341 3 c16 -16 15 -60 -2 -84 -20 -27 -50 -7 -54
35 -5 50 27 78 56 49z m-701 -44 c8 -21 -9 -48 -31 -52 -48 -10 -89 25 -65 54
17 20 88 18 96 -2z m477 -30 c27 -27 12 -64 -26 -64 -15 0 -38 27 -38 44 0 8
31 36 40 36 5 0 16 -7 24 -16z m-340 -26 c16 -26 -4 -53 -40 -53 -23 0 -30 5
-32 23 -7 47 47 69 72 30z m748 -24 c11 -22 10 -28 -7 -40 -22 -17 -40 -18
-66 -4 -23 13 -24 33 -3 54 25 25 63 20 76 -10z m-591 -30 c21 -25 -1 -49 -46
-49 -48 0 -71 28 -41 51 26 19 70 18 87 -2z m339 -5 c9 -15 8 -24 -1 -35 -18
-21 -57 -18 -64 6 -14 44 44 69 65 29z m-558 -84 c15 -33 -3 -72 -37 -81 -54
-14 -75 49 -29 85 35 28 52 26 66 -4z m333 -10 c0 -25 -4 -30 -24 -30 -28 0
-47 25 -38 49 5 12 16 16 34 14 24 -3 28 -8 28 -33z m374 17 c20 -38 -31 -71
-59 -37 -6 8 -9 23 -5 35 8 25 51 27 64 2z m-555 -75 c9 -15 7 -22 -13 -38
-28 -23 -54 -24 -72 -3 -11 14 -9 20 15 41 32 27 53 27 70 0z m324 11 c17 -17
15 -43 -4 -59 -31 -26 -70 25 -44 56 15 18 32 19 48 3z m399 -60 c31 -29 29
-38 -7 -38 -32 0 -47 18 -36 45 7 20 16 19 43 -7z m-590 -23 c8 -24 -27 -56
-56 -53 -29 3 -42 45 -19 59 22 14 68 10 75 -6z m129 -60 c7 -29 -18 -75 -41
-75 -18 0 -38 36 -29 53 29 50 60 60 70 22z m-348 -7 c19 -19 14 -56 -8 -63
-41 -13 -69 43 -32 64 22 13 26 13 40 -1z m120 -105 c4 -41 -20 -45 -44 -8
-19 29 -11 47 19 43 17 -2 23 -11 25 -35z m740 -32 c4 -24 -32 -71 -54 -71
-22 0 -36 37 -24 60 23 43 73 51 78 11z m-450 -93 c14 -14 16 -54 3 -62 -13
-9 -54 41 -48 58 8 19 28 21 45 4z m-1113 -429 c-8 -252 -7 -255 73 -292 40
-19 65 -22 172 -22 137 0 164 8 231 65 42 36 119 54 119 28 0 -27 -93 -104
-151 -126 -120 -45 -280 -51 -398 -16 -75 22 -83 44 -89 229 -4 138 8 328 24
370 7 16 7 16 17 0 6 -11 7 -99 2 -236z m1645 62 c0 -28 -28 -47 -48 -34 -24
15 -27 44 -7 59 22 17 55 1 55 -25z m918 -53 c30 -30 -4 -77 -41 -57 -20 11
-23 55 -4 62 21 9 32 8 45 -5z m-1528 -238 c13 -13 20 -33 20 -59 0 -50 17
-63 92 -72 73 -9 89 -21 63 -49 -29 -32 -89 -26 -174 16 -113 56 -144 130 -71
166 44 22 46 22 70 -2z"/>
<path d="M8895 5055 c-146 -88 -206 -199 -120 -221 32 -8 102 2 169 26 57 19
276 118 290 131 16 14 -160 91 -222 96 -52 4 -62 2 -117 -32z"/>
<path d="M7402 4915 c-99 -22 -116 -43 -52 -69 43 -17 340 -52 364 -43 24 10
20 60 -7 85 -13 13 -39 27 -58 32 -47 14 -172 11 -247 -5z"/>
<path d="M8177 4912 c-39 -43 -28 -106 24 -145 37 -27 66 -15 80 32 26 88 -51
172 -104 113z"/>
<path d="M7593 4733 c-35 -14 10 -65 72 -82 85 -23 149 -5 126 36 -19 36 -149
67 -198 46z"/>
<path d="M8358 4688 c-38 -13 -35 -26 9 -44 54 -23 101 -29 118 -14 20 17 19
26 -5 50 -22 22 -75 26 -122 8z"/>
<path d="M5870 5880 c-95 -18 -123 -41 -80 -68 37 -23 234 -35 460 -28 221 6
281 13 287 33 5 13 -59 38 -132 54 -65 13 -477 21 -535 9z"/>
<path d="M5680 5419 c-19 -5 -186 -13 -371 -18 -184 -5 -347 -12 -362 -15 -15
-3 -39 -9 -54 -12 -96 -20 148 -45 452 -47 262 -1 311 8 380 68 38 33 39 35
15 34 -14 -1 -41 -5 -60 -10z"/>
<path d="M3924 4746 c-50 -49 -55 -66 -20 -66 15 0 37 15 60 40 68 75 32 99
-40 26z"/>
<path d="M4730 4225 c-20 -24 17 -69 59 -73 36 -4 81 20 81 43 0 39 -113 63
-140 30z"/>
<path d="M5101 4085 c-40 -46 -42 -88 -4 -112 51 -33 154 -16 168 28 14 42
-58 119 -111 119 -13 0 -35 -15 -53 -35z"/>
<path d="M5509 4084 c-9 -11 -10 -20 -2 -32 15 -24 44 -27 59 -7 28 38 -27 75
-57 39z"/>
<path d="M11634 3057 c-31 -27 -28 -57 6 -57 50 0 77 39 48 68 -17 17 -23 15
-54 -11z"/>
<path d="M11682 2948 c-16 -16 -15 -35 1 -41 19 -7 100 30 92 43 -9 14 -78 13
-93 -2z"/>
<path d="M5262 3558 c-7 -7 -12 -18 -12 -25 0 -25 42 -35 141 -31 79 2 102 7
116 21 17 17 17 19 -1 33 -25 18 -226 20 -244 2z"/>
<path d="M7507 3520 c-74 -23 -73 -57 6 -189 31 -51 65 -120 76 -154 25 -76
41 -208 41 -344 0 -57 4 -103 8 -103 15 0 33 69 43 162 5 51 8 189 7 306 l-3
214 24 19 c13 10 31 19 40 19 35 0 91 22 91 35 0 29 -44 39 -175 42 -71 1
-143 -2 -158 -7z"/>
<path d="M5367 3430 c-16 -37 -46 -414 -34 -426 18 -19 64 187 73 326 5 76 3
99 -9 115 -15 19 -16 19 -30 -15z"/>
<path d="M7776 3369 c-41 -35 -53 -64 -36 -84 18 -22 73 -18 104 6 45 36 30
109 -23 109 -6 0 -26 -14 -45 -31z"/>
<path d="M6403 3563 c-8 -6 7 -30 50 -82 152 -180 196 -251 227 -364 9 -34 21
-61 26 -61 5 1 19 30 32 65 16 47 22 81 19 127 -3 71 -15 88 -87 124 -31 16
-45 29 -45 43 0 19 7 20 100 21 92 0 108 4 197 39 54 22 95 41 92 44 -22 22
-585 63 -611 44z"/>
</g>
</svg>
